<svg width="16" height="16" viewBox="0 0 16 16" fill="none" xmlns="http://www.w3.org/2000/svg">
<path fill-rule="evenodd" clip-rule="evenodd" d="M2.11503 3.44755C1.33398 4.2286 1.33398 5.48568 1.33398 7.99984C1.33398 10.514 1.33398 11.7711 2.11503 12.5521C2.89608 13.3332 4.15316 13.3332 6.66732 13.3332H9.33398C11.8481 13.3332 13.1052 13.3332 13.8863 12.5521C14.6673 11.7711 14.6673 10.514 14.6673 7.99984C14.6673 5.48568 14.6673 4.2286 13.8863 3.44755C13.1052 2.6665 11.8481 2.6665 9.33398 2.6665H6.66732C4.15316 2.6665 2.89608 2.6665 2.11503 3.44755ZM12.3848 5.01308C12.5615 5.22522 12.5329 5.5405 12.3207 5.71728L10.8564 6.93755C10.2655 7.42999 9.78658 7.82912 9.36387 8.10099C8.92354 8.38419 8.4947 8.56309 8.00065 8.56309C7.5066 8.56309 7.07777 8.38419 6.63744 8.10099C6.21473 7.82912 5.73579 7.42999 5.14489 6.93756L3.68056 5.71728C3.46842 5.5405 3.43976 5.22522 3.61654 5.01308C3.79332 4.80094 4.1086 4.77228 4.32074 4.94906L5.76001 6.14845C6.38198 6.66676 6.8138 7.02545 7.17837 7.25992C7.53128 7.4869 7.7706 7.56309 8.00065 7.56309C8.2307 7.56309 8.47002 7.4869 8.82293 7.25992C9.1875 7.02545 9.61932 6.66676 10.2413 6.14845L11.6806 4.94906C11.8927 4.77228 12.208 4.80094 12.3848 5.01308Z" fill="white"/>
</svg>
