<svg width="16" height="16" viewBox="0 0 16 16" fill="none" xmlns="http://www.w3.org/2000/svg">
<path fill-rule="evenodd" clip-rule="evenodd" d="M7.99935 1.3335C5.05383 1.3335 2.66602 4.00189 2.66602 7.00016C2.66602 9.97495 4.36823 13.2084 7.02406 14.4498C7.64318 14.7392 8.35552 14.7392 8.97464 14.4498C11.6305 13.2084 13.3327 9.97495 13.3327 7.00016C13.3327 4.00189 10.9449 1.3335 7.99935 1.3335ZM7.99935 8.00016C8.73573 8.00016 9.33268 7.40321 9.33268 6.66683C9.33268 5.93045 8.73573 5.3335 7.99935 5.3335C7.26297 5.3335 6.66602 5.93045 6.66602 6.66683C6.66602 7.40321 7.26297 8.00016 7.99935 8.00016Z" fill="white"/>
</svg>
