<svg width="16" height="16" viewBox="0 0 16 16" fill="none" xmlns="http://www.w3.org/2000/svg">
<path d="M11.0368 8.60427L10.7332 8.90618C10.7332 8.90618 10.0114 9.62381 8.04143 7.66499C6.07143 5.70617 6.79315 4.98854 6.79315 4.98854L6.98436 4.79842C7.4554 4.33006 7.4998 3.5781 7.08884 3.02915L6.24819 1.90622C5.73954 1.22677 4.75665 1.13702 4.17365 1.71672L3.12725 2.75717C2.83817 3.04461 2.64445 3.41722 2.66794 3.83057C2.72804 4.88804 3.20649 7.16327 5.87626 9.81787C8.70744 12.633 11.3639 12.7449 12.4502 12.6436C12.7938 12.6116 13.0926 12.4366 13.3334 12.1971L14.2805 11.2555C14.9197 10.6198 14.7395 9.53012 13.9216 9.08549L12.6479 8.3931C12.1108 8.10115 11.4565 8.18692 11.0368 8.60427Z" fill="white"/>
</svg>
