<svg width="60" height="60" viewBox="0 0 60 60" fill="none" xmlns="http://www.w3.org/2000/svg">
<g clip-path="url(#clip0_49_7996)">
<path d="M30 58.8C29.8275 58.8 29.655 58.7344 29.5238 58.6031L23.685 52.7644C22.905 51.9844 22.4719 50.9475 22.4663 49.8413C22.4625 48.7238 22.8938 47.6738 23.6831 46.8825C24.4669 46.0988 25.5094 45.6675 26.6156 45.6638C26.6194 45.6638 26.6213 45.6638 26.625 45.6638C27.735 45.6638 28.7775 46.095 29.565 46.8806L30 47.3156L30.435 46.8806C32.0044 45.3113 34.74 45.3056 36.315 46.8806C37.1231 47.6869 37.5544 48.7575 37.5338 49.8975C37.5113 50.9794 37.08 51.9975 36.3169 52.7625L30.4763 58.6013C30.345 58.7344 30.1725 58.8 30 58.8ZM26.625 47.0138H26.6194C25.8713 47.0138 25.1663 47.3063 24.6375 47.835C24.1031 48.3694 23.8125 49.0781 23.8144 49.8319C23.8181 50.5781 24.1106 51.2794 24.6375 51.8063L30 57.1688L35.3606 51.8063C35.8763 51.2906 36.1707 50.6025 36.1819 49.8713C36.1969 49.1025 35.9063 48.3788 35.3606 47.835C34.2975 46.77 32.4506 46.7738 31.3875 47.835L30.4763 48.7463C30.2119 49.0106 29.7863 49.0106 29.5219 48.7463L28.6106 47.835C28.08 47.3044 27.375 47.0138 26.625 47.0138ZM49.425 58.125H48.075C48.075 49.9688 42.5681 42.7988 34.6838 40.6856C34.4138 40.6144 34.2188 40.3875 34.1869 40.11C34.1531 39.8363 34.2957 39.5681 34.5394 39.4388C37.6838 37.7569 39.6375 34.4981 39.6375 30.9375C39.6375 25.6238 35.3138 21.3 30 21.3C24.6863 21.3 20.3625 25.6238 20.3625 30.9375C20.3625 34.4981 22.3163 37.7569 25.4606 39.4388C25.7063 39.57 25.8469 39.84 25.8131 40.1156C25.7794 40.3913 25.5788 40.62 25.3069 40.6875C17.4281 42.6769 11.925 49.8469 11.925 58.125H10.575C10.575 49.7456 15.8269 42.4238 23.52 39.81C20.7075 37.7569 19.0125 34.4775 19.0125 30.9375C19.0125 24.8794 23.94 19.95 30 19.95C36.06 19.95 40.9875 24.8775 40.9875 30.9375C40.9875 34.4888 39.285 37.7738 36.4613 39.8231C44.1656 42.5381 49.425 49.8619 49.425 58.125ZM52.5 43.8C49.0257 43.8 46.2 40.9725 46.2 37.5C46.2 34.0275 49.0275 31.2 52.5 31.2C55.9725 31.2 58.8 34.0256 58.8 37.5C58.8 40.9744 55.9744 43.8 52.5 43.8ZM52.5 32.55C49.77 32.55 47.55 34.77 47.55 37.5C47.55 40.23 49.77 42.45 52.5 42.45C55.23 42.45 57.45 40.23 57.45 37.5C57.45 34.77 55.23 32.55 52.5 32.55ZM15 41.925H1.87502C1.63315 41.925 1.41002 41.7956 1.29002 41.5856C1.17002 41.3756 1.17002 41.1169 1.2919 40.9088L7.8544 29.6588C8.09627 29.2425 8.77877 29.2425 9.02065 29.6588L15.5831 40.9088C15.705 41.1169 15.705 41.3756 15.585 41.5856C15.465 41.7956 15.2419 41.925 15 41.925ZM3.05065 40.575H13.8244L8.43752 31.3388L3.05065 40.575ZM51.5625 23.175C51.4463 23.175 51.3319 23.145 51.2269 23.0869L44.6644 19.3369C44.4544 19.2169 44.325 18.9919 44.325 18.75V11.25C44.325 11.0081 44.4544 10.7831 44.6663 10.665L51.2288 6.91501C51.4369 6.79689 51.69 6.79689 51.8982 6.91501L58.4607 10.665C58.6707 10.7831 58.8 11.0081 58.8 11.25V18.75C58.8 18.9919 58.6707 19.2169 58.4588 19.335L51.8963 23.085C51.7931 23.145 51.6788 23.175 51.5625 23.175ZM45.675 18.3581L51.5625 21.7219L57.45 18.3581V11.6419L51.5625 8.27814L45.675 11.6419V18.3581ZM15 21.3H3.75002C3.3769 21.3 3.07502 20.9981 3.07502 20.625V9.37501C3.07502 9.00189 3.3769 8.70001 3.75002 8.70001H15C15.3731 8.70001 15.675 9.00189 15.675 9.37501V20.625C15.675 20.9981 15.3731 21.3 15 21.3ZM4.42502 19.95H14.325V10.05H4.42502V19.95ZM30 13.8C26.5256 13.8 23.7 10.9744 23.7 7.50001C23.7 4.02564 26.5256 1.20001 30 1.20001C33.4744 1.20001 36.3 4.02564 36.3 7.50001C36.3 10.9744 33.4744 13.8 30 13.8ZM30 2.55001C27.27 2.55001 25.05 4.77189 25.05 7.50001C25.05 10.2281 27.27 12.45 30 12.45C32.73 12.45 34.95 10.2281 34.95 7.50001C34.95 4.77189 32.73 2.55001 30 2.55001Z" fill="#161616"/>
</g>
<defs>
<clipPath id="clip0_49_7996">
<rect width="60" height="60" fill="white"/>
</clipPath>
</defs>
</svg>
